<svg width="104" height="104" viewBox="0 0 104 104" fill="none" xmlns="http://www.w3.org/2000/svg">
<foreignObject x="0" y="-6" width="104" height="110"><div xmlns="http://www.w3.org/1999/xhtml" style="backdrop-filter:blur(10px);clip-path:url(#bgblur_0_724_10605_clip_path);height:100%;width:100%"></div></foreignObject><g filter="url(#filter0_di_724_10605)" data-figma-bg-blur-radius="20">
<rect x="84" y="78" width="64" height="64" rx="32" transform="rotate(-180 84 78)" fill="white" fill-opacity="0.1" shape-rendering="crispEdges"/>
<rect x="84" y="78" width="64" height="64" rx="32" transform="rotate(-180 84 78)" fill="url(#paint0_linear_724_10605)" fill-opacity="0.15" shape-rendering="crispEdges"/>
<rect x="83.5" y="77.5" width="63" height="63" rx="31.5" transform="rotate(-180 83.5 77.5)" stroke="white" stroke-opacity="0.4" shape-rendering="crispEdges"/>
<path d="M38.6555 45.3955C38.5903 45.4591 38.4598 45.5864 38.4598 45.7136C38.3945 45.8409 38.3945 45.9682 38.3945 46.0318C38.3945 46.0955 38.3945 46.2864 38.4598 46.35C38.525 46.4773 38.5903 46.6045 38.6555 46.6682L48.4435 56.2136C48.835 56.5955 49.4223 56.5955 49.8138 56.2136C50.2053 55.8318 50.2053 55.2591 49.8138 54.8773L41.7224 46.9864L64.6236 46.9864C65.1456 46.9864 65.6024 46.5409 65.6024 46.0318C65.6024 45.5227 65.1456 45.0773 64.6236 45.0773L41.7224 45.0773L49.8138 37.1864C50.0095 36.9955 50.0748 36.7409 50.0748 36.4864C50.0748 36.2318 50.0095 35.9773 49.8138 35.7864C49.4223 35.4045 48.835 35.4045 48.4435 35.7864L38.6555 45.3955Z" fill="#DC3755"/>
</g>
<defs>
<filter id="filter0_di_724_10605" x="0" y="-6" width="104" height="110" filterUnits="userSpaceOnUse" color-interpolation-filters="sRGB">
<feFlood flood-opacity="0" result="BackgroundImageFix"/>
<feColorMatrix in="SourceAlpha" type="matrix" values="0 0 0 0 0 0 0 0 0 0 0 0 0 0 0 0 0 0 127 0" result="hardAlpha"/>
<feOffset dy="6"/>
<feGaussianBlur stdDeviation="10"/>
<feComposite in2="hardAlpha" operator="out"/>
<feColorMatrix type="matrix" values="0 0 0 0 0 0 0 0 0 0 0 0 0 0 0 0 0 0 0.12 0"/>
<feBlend mode="normal" in2="BackgroundImageFix" result="effect1_dropShadow_724_10605"/>
<feBlend mode="normal" in="SourceGraphic" in2="effect1_dropShadow_724_10605" result="shape"/>
<feColorMatrix in="SourceAlpha" type="matrix" values="0 0 0 0 0 0 0 0 0 0 0 0 0 0 0 0 0 0 127 0" result="hardAlpha"/>
<feOffset dy="1"/>
<feGaussianBlur stdDeviation="3"/>
<feComposite in2="hardAlpha" operator="arithmetic" k2="-1" k3="1"/>
<feColorMatrix type="matrix" values="0 0 0 0 1 0 0 0 0 1 0 0 0 0 1 0 0 0 0.4 0"/>
<feBlend mode="normal" in2="shape" result="effect2_innerShadow_724_10605"/>
</filter>
<clipPath id="bgblur_0_724_10605_clip_path" transform="translate(0 6)"><rect x="84" y="78" width="64" height="64" rx="32" transform="rotate(-180 84 78)"/>
</clipPath><linearGradient id="paint0_linear_724_10605" x1="116" y1="78" x2="116" y2="142" gradientUnits="userSpaceOnUse">
<stop stop-color="#FD4002"/>
<stop offset="1" stop-color="#732E2F" stop-opacity="0"/>
</linearGradient>
</defs>
</svg>
