<svg width="33" height="33" viewBox="0 0 33 33" fill="none" xmlns="http://www.w3.org/2000/svg">
<path d="M20.8394 16.1771L14.955 12.2541C14.4455 11.923 13.7832 12.2796 13.7832 12.891V20.7369C13.7832 21.3482 14.471 21.7049 14.955 21.3737L20.8394 17.4508C21.2979 17.1451 21.2979 16.4828 20.8394 16.1771Z" fill="#1B4332"/>
<path d="M16.8148 4.71436C10.1407 4.71436 4.71484 10.1403 4.71484 16.8144C4.71484 23.4885 10.1407 28.9144 16.8148 28.9144C23.4889 28.9144 28.9148 23.4885 28.9148 16.8144C28.9148 10.1403 23.4889 4.71436 16.8148 4.71436ZM16.8148 27.0293C11.1852 27.0293 6.5999 22.444 6.5999 16.8144C6.5999 11.1847 11.1852 6.59941 16.8148 6.59941C22.4445 6.59941 27.0298 11.1847 27.0298 16.8144C27.0298 22.444 22.4445 27.0293 16.8148 27.0293Z" fill="#1B4332"/>
</svg>
