<svg width="39" height="39" viewBox="0 0 39 39" fill="none" xmlns="http://www.w3.org/2000/svg">
<g clip-path="url(#clip0_2001_6413)">
<path d="M19.9992 5.69995C23.7918 5.69995 27.4291 7.20655 30.1108 9.88832C32.7926 12.5701 34.2992 16.2074 34.2992 20C34.2992 23.7925 32.7926 27.4298 30.1108 30.1116C27.4291 32.7934 23.7918 34.3 19.9992 34.3C16.2066 34.3 12.5694 32.7934 9.88759 30.1116C7.20582 27.4298 5.69922 23.7925 5.69922 20C5.69922 16.2074 7.20582 12.5701 9.88759 9.88832C12.5694 7.20655 16.2066 5.69995 19.9992 5.69995ZM8.38047 20C8.38047 23.0814 9.60458 26.0367 11.7835 28.2156C13.9625 30.3946 16.9177 31.6187 19.9992 31.6187C23.0807 31.6187 26.036 30.3946 28.2149 28.2156C30.3939 26.0367 31.618 23.0814 31.618 20C31.618 16.9185 30.3939 13.9632 28.2149 11.7843C26.036 9.60532 23.0807 8.3812 19.9992 8.3812C16.9177 8.3812 13.9625 9.60532 11.7835 11.7843C9.60458 13.9632 8.38047 16.9185 8.38047 20ZM17.1017 15.0432L24.7236 19.6174C24.7894 19.6572 24.8439 19.7133 24.8817 19.7803C24.9196 19.8474 24.9394 19.923 24.9394 20C24.9394 20.0769 24.9196 20.1525 24.8817 20.2196C24.8439 20.2866 24.7894 20.3427 24.7236 20.3825L17.1017 24.9567C17.0339 24.9975 16.9565 25.0196 16.8774 25.0207C16.7983 25.0218 16.7203 25.0019 16.6514 24.963C16.5825 24.9241 16.5251 24.8676 16.4852 24.7993C16.4453 24.731 16.4243 24.6533 16.4242 24.5742V15.4275C16.4239 15.3483 16.4448 15.2703 16.4846 15.2018C16.5243 15.1332 16.5816 15.0764 16.6506 15.0373C16.7195 14.9982 16.7977 14.9781 16.8769 14.9792C16.9562 14.9802 17.0338 15.0023 17.1017 15.0432Z" fill="#657608"/>
</g>
<defs>
<clipPath id="clip0_2001_6413">
<rect width="28.6" height="28.6" fill="white" transform="translate(5.69922 5.69995)"/>
</clipPath>
</defs>
</svg>
